<svg width="411" height="217" viewBox="0 0 411 217" fill="none" xmlns="http://www.w3.org/2000/svg">
<path d="M243.754 69.1158C216.99 96.1835 197.718 62.4156 176.246 76.8842C203.01 49.8165 222.282 83.5844 243.754 69.1158Z" fill="white"/>
<path d="M20.55 125.75C22.75 129.65 25.15 133.05 27.75 135.95C30.45 138.85 33.4 141.1 36.6 142.7C39.8 144.3 43.25 145.1 46.95 145.1C51.25 145.1 54.75 144 57.45 141.8C60.15 139.6 61.5 136.6 61.5 132.8C61.5 129.5 60.65 126.85 58.95 124.85C57.35 122.85 54.9 121.1 51.6 119.6C48.4 118 44.45 116.3 39.75 114.5C37.25 113.6 34.35 112.4 31.05 110.9C27.85 109.3 24.8 107.3 21.9 104.9C19 102.4 16.6 99.4 14.7 95.9C12.8 92.3 11.85 88 11.85 83C11.85 77 13.35 71.85 16.35 67.55C19.45 63.15 23.6 59.8 28.8 57.5C34.1 55.1 40 53.9 46.5 53.9C53.2 53.9 58.95 55.05 63.75 57.35C68.65 59.55 72.7 62.4 75.9 65.9C79.2 69.3 81.75 72.85 83.55 76.55L66.75 85.85C65.35 83.35 63.65 81.1 61.65 79.1C59.75 77 57.55 75.35 55.05 74.15C52.55 72.85 49.7 72.2 46.5 72.2C42.3 72.2 39.15 73.2 37.05 75.2C34.95 77.1 33.9 79.35 33.9 81.95C33.9 84.55 34.75 86.85 36.45 88.85C38.15 90.75 40.75 92.6 44.25 94.4C47.75 96.1 52.15 97.85 57.45 99.65C60.85 100.85 64.1 102.35 67.2 104.15C70.4 105.95 73.25 108.15 75.75 110.75C78.35 113.25 80.35 116.25 81.75 119.75C83.25 123.15 84 127.1 84 131.6C84 136.7 83 141.25 81 145.25C79 149.25 76.25 152.65 72.75 155.45C69.25 158.15 65.3 160.2 60.9 161.6C56.6 163.1 52.05 163.85 47.25 163.85C40.85 163.85 34.85 162.65 29.25 160.25C23.75 157.75 18.95 154.4 14.85 150.2C10.75 146 7.55 141.45 5.25 136.55L20.55 125.75ZM113.488 139.55C113.488 141.55 113.988 143.3 114.988 144.8C115.988 146.2 117.338 147.3 119.038 148.1C120.838 148.8 122.788 149.15 124.888 149.15C127.888 149.15 130.588 148.55 132.988 147.35C135.388 146.05 137.338 144.25 138.838 141.95C140.338 139.55 141.088 136.7 141.088 133.4L143.488 142.4C143.488 146.8 142.238 150.5 139.738 153.5C137.338 156.5 134.188 158.75 130.288 160.25C126.488 161.75 122.488 162.5 118.288 162.5C113.988 162.5 109.988 161.65 106.288 159.95C102.588 158.25 99.5879 155.8 97.2879 152.6C95.0879 149.3 93.9879 145.3 93.9879 140.6C93.9879 133.9 96.3379 128.6 101.038 124.7C105.738 120.8 112.388 118.85 120.988 118.85C125.388 118.85 129.238 119.3 132.538 120.2C135.938 121.1 138.788 122.2 141.088 123.5C143.388 124.8 145.038 126.05 146.038 127.25V136.25C143.338 134.25 140.288 132.75 136.888 131.75C133.588 130.75 130.088 130.25 126.388 130.25C123.388 130.25 120.938 130.65 119.038 131.45C117.138 132.15 115.738 133.2 114.838 134.6C113.938 135.9 113.488 137.55 113.488 139.55ZM105.988 111.5L98.7879 98.3C102.388 96.4 106.788 94.6 111.988 92.9C117.188 91.1 122.988 90.2 129.388 90.2C135.288 90.2 140.538 91.05 145.138 92.75C149.738 94.45 153.338 96.95 155.938 100.25C158.538 103.45 159.838 107.4 159.838 112.1V161H141.088V116.15C141.088 114.25 140.788 112.65 140.188 111.35C139.588 109.95 138.638 108.8 137.338 107.9C136.138 107 134.688 106.35 132.988 105.95C131.288 105.55 129.388 105.35 127.288 105.35C124.088 105.35 121.038 105.7 118.138 106.4C115.238 107.1 112.738 107.95 110.638 108.95C108.538 109.95 106.988 110.8 105.988 111.5ZM222.461 119C222.461 114.4 221.561 110.9 219.761 108.5C217.961 106.1 215.061 104.9 211.061 104.9C208.361 104.9 205.961 105.5 203.861 106.7C201.761 107.8 200.161 109.4 199.061 111.5C197.961 113.6 197.411 116.1 197.411 119V161H177.911V92H197.411V102.5C199.511 98.6 202.261 95.65 205.661 93.65C209.161 91.55 213.361 90.5 218.261 90.5C226.461 90.5 232.561 92.85 236.561 97.55C240.561 102.15 242.561 108.6 242.561 116.9V161H222.461V119ZM261.25 44H280V161H261.25V44ZM305.35 92H328.6L298.9 120.5L331.6 161H308.5L275.65 120.5L305.35 92ZM355.627 139.55C355.627 141.55 356.127 143.3 357.127 144.8C358.127 146.2 359.477 147.3 361.177 148.1C362.977 148.8 364.927 149.15 367.027 149.15C370.027 149.15 372.727 148.55 375.127 147.35C377.527 146.05 379.477 144.25 380.977 141.95C382.477 139.55 383.227 136.7 383.227 133.4L385.627 142.4C385.627 146.8 384.377 150.5 381.877 153.5C379.477 156.5 376.327 158.75 372.427 160.25C368.627 161.75 364.627 162.5 360.427 162.5C356.127 162.5 352.127 161.65 348.427 159.95C344.727 158.25 341.727 155.8 339.427 152.6C337.227 149.3 336.127 145.3 336.127 140.6C336.127 133.9 338.477 128.6 343.177 124.7C347.877 120.8 354.527 118.85 363.127 118.85C367.527 118.85 371.377 119.3 374.677 120.2C378.077 121.1 380.927 122.2 383.227 123.5C385.527 124.8 387.177 126.05 388.177 127.25V136.25C385.477 134.25 382.427 132.75 379.027 131.75C375.727 130.75 372.227 130.25 368.527 130.25C365.527 130.25 363.077 130.65 361.177 131.45C359.277 132.15 357.877 133.2 356.977 134.6C356.077 135.9 355.627 137.55 355.627 139.55ZM348.127 111.5L340.927 98.3C344.527 96.4 348.927 94.6 354.127 92.9C359.327 91.1 365.127 90.2 371.527 90.2C377.427 90.2 382.677 91.05 387.277 92.75C391.877 94.45 395.477 96.95 398.077 100.25C400.677 103.45 401.977 107.4 401.977 112.1V161H383.227V116.15C383.227 114.25 382.927 112.65 382.327 111.35C381.727 109.95 380.777 108.8 379.477 107.9C378.277 107 376.827 106.35 375.127 105.95C373.427 105.55 371.527 105.35 369.427 105.35C366.227 105.35 363.177 105.7 360.277 106.4C357.377 107.1 354.877 107.95 352.777 108.95C350.677 109.95 349.127 110.8 348.127 111.5Z" fill="white"/>
</svg>
